<?xml version="1.0" encoding="UTF-8" standalone="no"?>
<!-- Created with Inkscape (http://www.inkscape.org/) -->

<svg
   xmlns:dc="http://purl.org/dc/elements/1.1/"
   xmlns:cc="http://creativecommons.org/ns#"
   xmlns:rdf="http://www.w3.org/1999/02/22-rdf-syntax-ns#"
   xmlns:svg="http://www.w3.org/2000/svg"
   xmlns="http://www.w3.org/2000/svg"
   xmlns:sodipodi="http://sodipodi.sourceforge.net/DTD/sodipodi-0.dtd"
   xmlns:inkscape="http://www.inkscape.org/namespaces/inkscape"
   width="209.0136mm"
   height="29.262402mm"
   viewBox="0 0 209.0136 29.262402"
   version="1.1"
   id="svg8"
   inkscape:version="0.92.4 5da689c313, 2019-01-14"
   sodipodi:docname="ff.svg">
  <defs
     id="defs2" />
  <sodipodi:namedview
     id="base"
     pagecolor="#000000"
     bordercolor="#666666"
     borderopacity="1.0"
     inkscape:pageopacity="0"
     inkscape:pageshadow="2"
     inkscape:zoom="0.98994949"
     inkscape:cx="390.23054"
     inkscape:cy="-155.60891"
     inkscape:document-units="mm"
     inkscape:current-layer="layer1"
     showgrid="false"
     fit-margin-top="0"
     fit-margin-left="0"
     fit-margin-right="0"
     fit-margin-bottom="0"
     inkscape:window-width="1920"
     inkscape:window-height="1046"
     inkscape:window-x="0"
     inkscape:window-y="16"
     inkscape:window-maximized="0" />
  <metadata
     id="metadata5">
    <rdf:RDF>
      <cc:Work
         rdf:about="">
        <dc:format>image/svg+xml</dc:format>
        <dc:type
           rdf:resource="http://purl.org/dc/dcmitype/StillImage" />
        <dc:title></dc:title>
      </cc:Work>
    </rdf:RDF>
  </metadata>
  <g
     inkscape:label="Layer 1"
     inkscape:groupmode="layer"
     id="layer1"
     transform="translate(-0.55627316,-0.31944293)">
    <g
       id="g944"
       transform="matrix(0.73244355,0,0,0.73244355,-13.139784,-16.248458)">
      <g
         style="fill:#ffffff"
         transform="translate(176.1467,-38.364584)"
         id="g919">
        <path
           inkscape:connector-curvature="0"
           style="fill:#ffffff;stroke-width:0.26458332"
           d="m 18.697329,82.356774 0.119723,-0.33073 2.617171,-10.517187 2.617172,-10.517188 h 8.93812 8.938119 l -0.180268,0.727604 -0.180271,0.727605 -0.174244,0.661458 -0.174244,0.661458 -5.80209,0.132292 -5.802088,0.132292 -0.705531,2.645833 -0.70553,2.645833 -0.02207,0.463021 -0.02207,0.463021 h 5.180398 5.180397 l -0.187023,0.859896 -0.187021,0.859896 -0.222189,0.58969 -0.222189,0.58969 -5.219395,0.07177 -5.219396,0.07177 -1.170823,4.696355 -1.170823,4.696354 h -3.171775 -3.171776 z"
           id="path910" />
        <path
           inkscape:connector-curvature="0"
           style="fill:#ffffff;stroke-width:0.26458332"
           d="m 40.06547,82.552854 v -0.13465 l 2.678848,-10.713267 2.678848,-10.713268 h 3.170293 3.170294 l -0.119724,0.33073 -0.119724,0.330729 -2.617171,10.517187 -2.617171,10.517188 H 43.177716 40.06547 Z"
           id="path908" />
        <path
           inkscape:connector-curvature="0"
           style="fill:#ffffff;stroke-width:0.26458332"
           d="m 49.855054,82.4174 v -0.270102 l 2.394048,-9.585627 2.39405,-9.585627 0.261983,-0.992187 0.261982,-0.992188 h 3.133164 3.133164 l -2.3423,9.326563 -2.342301,9.326562 -0.0073,0.06615 -0.0073,0.06615 h 5.688542 5.688542 l -0.0016,0.463021 -0.0016,0.463021 -0.275545,0.992187 -0.275545,0.992188 H 58.705935 49.854829 V 82.4174 Z"
           id="path906" />
        <path
           inkscape:connector-curvature="0"
           style="fill:#ffffff;stroke-width:0.26458332"
           d="M 70.492554,82.566681 V 82.418204 L 73.171402,71.704937 75.85025,60.991669 h 4.034832 4.034832 l 0.416534,2.711979 0.416533,2.71198 0.720834,5.104087 0.720833,5.104088 0.305959,-0.341588 0.305962,-0.341587 4.834985,-7.474479 4.834985,-7.47448 h 3.814091 3.81409 l -0.18351,0.727604 -0.18352,0.727605 -2.5335,10.054166 -2.533511,10.054167 -2.976563,0.07481 -2.976562,0.07481 0.0073,-0.339394 0.0073,-0.339395 2.225286,-8.857898 2.225283,-8.857898 -0.0616,-0.0616 -0.0616,-0.0616 -5.979374,9.184082 -5.979377,9.184079 -2.137008,0.07672 -2.137008,0.07672 -0.13503,-0.605887 -0.13503,-0.605888 -1.216774,-8.598104 -1.216776,-8.598101 -0.09822,-0.09822 -0.09822,-0.09822 -0.191135,0.758825 -0.191132,0.758825 -2.136846,8.466666 -2.136849,8.466667 -1.389063,0.07997 -1.389062,0.07997 v -0.148476 z"
           id="path904" />
        <path
           inkscape:connector-curvature="0"
           style="fill:#ffffff;stroke-width:0.26458332"
           d="m 102.88812,81.995178 0.17376,-0.692327 0.15258,-0.762881 0.15257,-0.762884 6.51537,-0.004 6.51536,-0.004 0.3567,-0.22605 0.3567,-0.226049 0.50319,-1.814693 0.5032,-1.814695 v -0.581178 -0.581178 l -5.22552,-0.09221 -5.22552,-0.09221 -0.69843,-0.353695 -0.69843,-0.353698 -0.29375,-0.644731 -0.29376,-0.644734 v -0.796777 -0.796777 l 0.80786,-3.199958 0.80787,-3.199961 0.35914,-0.687168 0.35914,-0.687168 0.75122,-0.710771 0.75123,-0.710771 0.74482,-0.281417 0.74483,-0.281416 h 8.45449 8.45448 l -0.18027,0.727604 -0.18027,0.727605 -0.17441,0.661458 -0.17441,0.661458 -6.65869,0.07068 -6.65869,0.07068 -0.37023,0.590778 -0.37022,0.590775 -0.32418,1.403345 -0.32418,1.403342 0.18328,0.184158 0.18328,0.184155 5.38222,0.132292 5.38222,0.132291 0.65678,0.61772 0.65679,0.617718 0.15877,0.846336 0.15877,0.846336 -0.92518,3.767894 -0.92519,3.767897 -0.52388,1.026893 -0.52388,1.026895 -0.67958,0.534554 -0.67957,0.534556 -1.32521,0.284205 -1.3252,0.284205 h -7.82087 -7.82087 l 0.17377,-0.692325 z"
           id="path902" />
      </g>
      <g
         style="fill:#ffffff"
         id="g928">
        <path
           style="fill:#ffffff;stroke-width:0.26458332"
           d="m 21.395093,33.541148 2.695964,-10.78177 8.919174,-0.06967 8.919173,-0.06967 -0.181155,0.731131 -0.181154,0.73113 -0.174244,0.661459 -0.174244,0.661458 -5.774937,0.132292 -5.774936,0.132291 -0.748058,2.778125 -0.748058,2.778125 -0.0067,0.330729 -0.0067,0.33073 h 5.188058 5.188059 l -0.173762,0.692325 -0.173765,0.692326 -0.152575,0.762882 -0.152577,0.762883 H 32.63426 27.385865 l -0.260259,0.992188 -0.260258,0.992187 -0.690505,2.778125 -0.690504,2.778125 -0.260259,0.992188 -0.260258,0.992187 H 21.831477 18.69913 Z"
           id="path900"
           inkscape:connector-curvature="0" />
        <path
           style="fill:#ffffff;stroke-width:0.26458332"
           d="m 40.127214,43.995746 0.121089,-0.334285 2.617171,-10.517188 2.617171,-10.517187 h 8.924777 8.924774 l -0.110924,0.330729 -0.110927,0.330729 -0.287843,1.12448 -0.287845,1.124479 -5.744488,2.91e-4 -5.74449,2.74e-4 -0.830334,3.174717 -0.830337,3.174718 h 5.267148 5.267145 l -0.180269,0.727604 -0.180271,0.727604 -0.17435,0.661458 -0.174347,0.661459 -5.282435,0.07144 -5.282433,0.07144 -0.815329,3.301993 -0.81533,3.301994 h 5.790925 5.790922 l -0.180268,0.727604 -0.180271,0.727604 -0.174459,0.661458 -0.174461,0.661459 -8.940398,0.0697 -8.9404,0.0697 z"
           id="path898"
           inkscape:connector-curvature="0" />
        <path
           style="fill:#ffffff;stroke-width:0.99999994"
           d="m 287.60547,85.519531 -25.24219,36.249999 -25.24219,36.25 -3.43164,4.75 -3.43164,4.75 5.83594,-0.041 5.83398,-0.041 7.79297,-11.45898 7.79102,-11.45899 h 18.81055 18.81054 l 2.09766,11.11719 2.09765,11.11523 0.41407,0.41407 0.41406,0.41601 12.43945,-0.28125 12.4375,-0.28125 -7.28515,-35.5 -7.28321,-35.499999 -1.08984,-5.25 -1.08789,-5.25 h -10.3418 z m -1.82031,17.999999 h 0.60742 0.60937 l 2.71289,13.80859 2.71289,13.80665 v 1.19335 1.19141 h -13.59765 -13.59766 l 1.84766,-2.8125 1.84765,-2.81055 8.42969,-12.18945 z"
           transform="scale(0.26458333)"
           id="path896"
           inkscape:connector-curvature="0" />
        <path
           style="fill:#ffffff;stroke-width:0.26458332"
           d="m 95.370697,44.256774 0.0073,-0.06615 2.3423,-9.326563 2.342303,-9.326562 H 96.786959 93.511304 V 25.25779 24.978078 l 0.295992,-1.175496 0.295994,-1.175496 h 9.75817 9.75818 v 0.279712 0.279712 l -0.296,1.175497 -0.29599,1.175496 h -3.3458 -3.3458 l -2.34213,9.392708 -2.34214,9.392708 h -3.144193 -3.1442 l 0.0073,-0.06614 z"
           id="path892"
           inkscape:connector-curvature="0" />
        <path
           style="fill:#ffffff;stroke-width:0.26458332"
           d="m 113.72233,44.063609 -0.55877,-0.225769 -0.56571,-0.719182 -0.56571,-0.719185 -0.007,-0.559631 -0.007,-0.559631 2.31827,-9.326563 2.31827,-9.326562 h 3.14349 3.14348 l -0.16319,0.595312 -0.1632,0.595313 -2.13087,8.437165 -2.13086,8.437164 0.13823,0.360232 0.13824,0.360231 h 5.53215 5.53216 l 0.28062,-0.33813 0.28062,-0.338127 2.01367,-8.062393 2.01367,-8.062392 0.26185,-0.992187 0.26184,-0.992188 h 1.41338 1.41337 l -2.303,9.194271 -2.30299,9.194271 -0.28843,0.529166 -0.28844,0.529167 -0.75037,0.713568 -0.75037,0.713568 -0.98369,0.410911 -0.98369,0.410911 -7.35069,-0.01677 -7.35068,-0.01678 -0.55877,-0.225769 z"
           id="path890"
           inkscape:connector-curvature="0" />
        <path
           style="fill:#ffffff;stroke-width:0.99999994"
           d="m 534.90234,85.519531 -9.89062,39.749999 -9.89258,39.75 -0.45117,1.25 -0.45313,1.25 h 11.98633 11.98828 l 4.42383,-17.75 4.42383,-17.75 9.19531,-0.28711 9.19531,-0.28711 v 0.98242 0.98243 l 1.98243,13.80468 1.98242,13.80469 0.5625,3.25 0.56445,3.25 h 12.47266 12.47461 l -0.49805,-2.25 -0.49805,-2.25 -2.02148,-13.67383 -2.02149,-13.67187 v -1.8418 -1.84375 l 5.01758,-1.78125 5.01758,-1.78125 2.42188,-3.70312 2.42382,-3.70313 2.625,-10.43945 2.625,-10.4375 0.0508,-3.660158 0.0508,-3.66211 -1.19727,-2.234374 -1.19531,-2.236329 -3.38672,-1.414062 -3.38867,-1.416016 H 568.1973 Z m 51.58985,11 0.60156,1.56836 0.60156,1.568359 -2.25976,8.68164 -2.26172,8.68164 -1.52735,1.75 -1.52734,1.75 h -15.23437 -15.23243 l 3.13868,-11.99805 3.13671,-11.999996 h 15.28125 z"
           transform="scale(0.26458333)"
           id="path888"
           inkscape:connector-curvature="0" />
        <path
           style="fill:#ffffff;stroke-width:0.26458332"
           d="M 160.98005,44.188269 V 44.05362 l 2.67885,-10.713267 2.67885,-10.713268 h 8.83053 8.83052 v 0.279712 0.279712 l -0.29599,1.175497 -0.29599,1.175496 h -5.74605 -5.74605 l -0.71774,2.711979 -0.71774,2.711979 -0.13721,0.463021 -0.13722,0.463021 h 5.30119 5.3012 l -0.11093,0.330729 -0.11092,0.330729 -0.28785,1.124479 -0.28784,1.124479 h -5.24882 -5.24881 l -0.70513,2.844271 -0.70512,2.844271 -0.13911,0.463021 -0.13911,0.463021 h 5.83036 5.83036 l -0.11092,0.330729 -0.11093,0.330729 -0.28784,1.124479 -0.28785,1.124479 h -8.85334 -8.85335 z"
           id="path882"
           inkscape:connector-curvature="0" />
      </g>
    </g>
    <rect
       style="opacity:1;fill:#0809e8;fill-opacity:1;stroke:none;stroke-width:2.56993723;stroke-linecap:round;stroke-linejoin:round;stroke-miterlimit:4;stroke-dasharray:none;stroke-opacity:1"
       id="rect946"
       width="208.8777"
       height="3.0238094"
       x="0.6047619"
       y="18.393747" />
    <rect
       style="opacity:1;fill:#0749d6;fill-opacity:1;stroke:none;stroke-width:2.22572231;stroke-linecap:round;stroke-linejoin:round;stroke-miterlimit:4;stroke-dasharray:none;stroke-opacity:1"
       id="rect946-3"
       width="156.67114"
       height="3.0238094"
       x="0.6047619"
       y="22.475891" />
    <rect
       style="opacity:1;fill:#0b6dc7;fill-opacity:1;stroke:none;stroke-width:1.83908558;stroke-linecap:round;stroke-linejoin:round;stroke-miterlimit:4;stroke-dasharray:none;stroke-opacity:1"
       id="rect946-6"
       width="106.96727"
       height="3.0238094"
       x="0.6047619"
       y="26.558035" />
  </g>
</svg>
