<?xml version="1.0" encoding="UTF-8" standalone="no"?>
<!-- Created with Inkscape (http://www.inkscape.org/) -->

<svg
   xmlns:dc="http://purl.org/dc/elements/1.1/"
   xmlns:cc="http://creativecommons.org/ns#"
   xmlns:rdf="http://www.w3.org/1999/02/22-rdf-syntax-ns#"
   xmlns:svg="http://www.w3.org/2000/svg"
   xmlns="http://www.w3.org/2000/svg"
   xmlns:sodipodi="http://sodipodi.sourceforge.net/DTD/sodipodi-0.dtd"
   xmlns:inkscape="http://www.inkscape.org/namespaces/inkscape"
   width="97.487694mm"
   height="49.495033mm"
   viewBox="0 0 97.487694 49.495033"
   version="1.1"
   id="svg8"
   inkscape:version="0.92.4 5da689c313, 2019-01-14"
   sodipodi:docname="ywsaw.svg">
  <defs
     id="defs2" />
  <sodipodi:namedview
     id="base"
     pagecolor="#000000"
     bordercolor="#666666"
     borderopacity="1.0"
     inkscape:pageopacity="0"
     inkscape:pageshadow="2"
     inkscape:zoom="1.4"
     inkscape:cx="140.49742"
     inkscape:cy="80.964428"
     inkscape:document-units="mm"
     inkscape:current-layer="layer1"
     showgrid="false"
     fit-margin-top="10"
     fit-margin-left="10"
     fit-margin-right="10"
     fit-margin-bottom="10"
     inkscape:window-width="1920"
     inkscape:window-height="1046"
     inkscape:window-x="0"
     inkscape:window-y="16"
     inkscape:window-maximized="0" />
  <metadata
     id="metadata5">
    <rdf:RDF>
      <cc:Work
         rdf:about="">
        <dc:format>image/svg+xml</dc:format>
        <dc:type
           rdf:resource="http://purl.org/dc/dcmitype/StillImage" />
        <dc:title></dc:title>
      </cc:Work>
    </rdf:RDF>
  </metadata>
  <g
     inkscape:label="Layer 1"
     inkscape:groupmode="layer"
     id="layer1"
     transform="translate(-6.4748284,-6.9710473)">
    <g
       aria-label="YOU"
       style="font-style:normal;font-variant:normal;font-weight:normal;font-stretch:normal;font-size:10.58333302px;line-height:1.25;font-family:'XBAND Rough';-inkscape-font-specification:'XBAND Rough';letter-spacing:0px;word-spacing:0px;fill:#ffffff;fill-opacity:1;stroke:none;stroke-width:0.26458332"
       id="text4520">
      <path
         d="m 30.350581,17.237747 -0.1524,1.3589 -0.2921,1.5367 -0.4191,1.1938 -0.2413,1.0414 -0.1397,0.3302 -0.1524,0.6858 0.1778,0.254 0.0635,2.54 -0.3556,0.3683 -0.4953,-0.0762 -0.2794,-0.3556 0.0254,-2.8956 -0.7239,-1.9304 -0.1143,-1.1811 -0.4318,-0.5842 v -0.2667 l -0.1905,-0.1651 -0.1016,-0.762 -0.1016,-0.6858 -0.0127,-0.2286 0.3556,-0.2794 0.3302,0.0762 0.4572,0.762 0.1016,0.762 0.1524,0.1524 0.3048,1.524 0.1778,0.2667 0.0889,0.0889 0.0889,-0.0127 0.4699,-1.5367 0.0762,-0.508 0.3048,-0.8636 0.0762,-0.508 0.4953,-0.3683 0.2667,0.0889 z"
         style="font-style:normal;font-variant:normal;font-weight:normal;font-stretch:normal;font-size:12.69999981px;font-family:'XBAND Rough';-inkscape-font-specification:'XBAND Rough';fill:#ffffff;stroke-width:0.26458332"
         id="path4580" />
      <path
         d="m 36.305889,22.470147 -0.0762,2.54 -0.3302,0.6985 -0.762,0.5461 -0.5842,0.1651 -0.7747,-0.0635 -0.7747,-0.3937 -0.5207,-0.6731 -0.2032,-0.9398 0.1778,-0.3302 0.0508,-1.0287 0.2286,-0.5969 -0.0127,-0.3302 -0.3556,-1.2954 -0.0508,-1.6764 0.254,-0.508 -0.0127,-0.6223 1.0668,-0.8509 0.4191,-0.1016 0.8509,0.0635 0.7874,0.3937 0.5207,0.6731 z m -1.1811,-3.81 -0.4318,-0.3937 -0.8509,-0.0762 -0.2667,0.3683 -0.1524,1.0033 0.1905,0.4064 -0.1143,2.0828 0.0254,1.0922 -0.1143,1.4478 0.254,0.4064 0.8636,0.2413 0.3429,-0.2794 0.2159,-0.6858 v -3.3909 z"
         style="font-style:normal;font-variant:normal;font-weight:normal;font-stretch:normal;font-size:12.69999981px;font-family:'XBAND Rough';-inkscape-font-specification:'XBAND Rough';fill:#ffffff;stroke-width:0.26458332"
         id="path4582" />
      <path
         d="m 42.782889,24.032247 -0.1524,0.9525 -0.3048,0.6858 -0.6731,0.6096 -0.4318,0.1905 -1.4605,-0.0635 -0.3175,-0.1651 -0.635,-0.6731 -0.254,-0.4953 -0.0762,-3.4798 v -3.5687 l 0.1397,-0.7747 0.4318,-0.2794 h 0.2667 l 0.4191,0.5207 0.0635,2.7178 -0.1524,1.0922 0.2159,1.3589 -0.1778,0.2667 0.1905,0.6731 0.0381,1.1811 0.3302,0.3429 0.9398,-0.1016 0.1651,-0.2794 0.1524,-1.1811 -0.1143,-5.1054 0.0635,-1.0033 0.0635,-0.2667 0.4318,-0.1905 0.3302,-0.0127 0.4445,0.3429 0.0127,4.5847 -0.2413,0.7747 z"
         style="font-style:normal;font-variant:normal;font-weight:normal;font-stretch:normal;font-size:12.69999981px;font-family:'XBAND Rough';-inkscape-font-specification:'XBAND Rough';fill:#ffffff;stroke-width:0.26458332"
         id="path4584" />
    </g>
    <g
       style="font-style:normal;font-variant:normal;font-weight:normal;font-stretch:normal;font-size:10.58333302px;line-height:1.25;font-family:'XBAND Rough';-inkscape-font-specification:'XBAND Rough';letter-spacing:0px;word-spacing:0px;fill:#000000;fill-opacity:1;stroke:none;stroke-width:0.26458332"
       id="text4524" />
    <g
       aria-label="WOULDN'T"
       style="font-style:normal;font-weight:normal;font-size:10.58333302px;line-height:1.25;font-family:sans-serif;letter-spacing:0px;word-spacing:0px;fill:#ffffff;fill-opacity:1;stroke:none;stroke-width:0.26458332"
       id="text4528">
      <path
         d="m 50.596537,21.767696 -0.0635,0.645583 -0.105833,0.5715 0.01058,0.635 -0.137583,0.201083 0.01058,0.719667 -0.137583,0.41275 -0.05292,1.016 -0.137583,0.275166 -0.02117,1.280584 -0.1905,1.354666 -0.137583,0.201084 -0.497417,0.15875 -0.296333,-0.0635 -0.34925,-0.41275 -0.09525,-0.85725 -0.148167,-0.201084 -0.243416,1.143 -0.07408,0.22225 -0.148166,0.127 -0.762,-0.05292 -0.306917,-0.560917 -0.01058,-0.687917 -0.34925,-3.344333 -0.169333,-0.709083 -0.08467,-0.836083 -0.15875,-0.28575 -0.01058,-0.5715 -0.08467,-0.41275 -0.01058,-0.22225 0.370416,-0.359834 h 0.41275 l 0.275167,0.264584 0.169333,0.709083 0.09525,1.27 0.169333,0.719666 0.01058,0.338667 0.07408,0.07408 0.116417,-0.148166 0.0635,-0.624417 0.433916,-0.4445 0.486834,-0.01058 0.359833,0.433917 0.08467,0.761999 0.07408,0.0635 h 0.148167 l 0.116416,-0.423333 0.179917,-1.926166 0.137583,-0.635 -0.01058,-0.07408 0.338667,-0.211666 0.370416,0.04233 z"
         style="font-style:normal;font-variant:normal;font-weight:normal;font-stretch:normal;font-family:'XBAND Rough';-inkscape-font-specification:'XBAND Rough';fill:#ffffff;stroke-width:0.26458332"
         id="path4588" />
      <path
         d="m 55.253204,25.545945 -0.0635,2.116667 -0.275167,0.582083 -0.635,0.455084 -0.486833,0.137583 -0.645583,-0.05292 -0.645584,-0.328083 -0.433916,-0.560917 -0.169334,-0.783166 0.148167,-0.275167 0.04233,-0.85725 0.1905,-0.497417 -0.01058,-0.275166 -0.296333,-1.0795 -0.04233,-1.397 0.211667,-0.423333 -0.01058,-0.518584 0.889,-0.709083 0.34925,-0.08467 0.709083,0.05292 0.656167,0.328083 0.433916,0.560917 z m -0.98425,-3.174999 -0.359833,-0.328084 -0.709084,-0.0635 -0.22225,0.306917 -0.127,0.836083 0.15875,0.338667 -0.09525,1.735666 0.02117,0.910167 -0.09525,1.2065 0.211667,0.338667 0.719666,0.201083 0.28575,-0.232833 0.179917,-0.5715 v -2.82575 z"
         style="font-style:normal;font-variant:normal;font-weight:normal;font-stretch:normal;font-family:'XBAND Rough';-inkscape-font-specification:'XBAND Rough';fill:#ffffff;stroke-width:0.26458332"
         id="path4590" />
      <path
         d="m 60.650704,26.847695 -0.127,0.79375 -0.254,0.5715 -0.560917,0.508 -0.359833,0.15875 -1.217084,-0.05292 -0.264583,-0.137584 -0.529166,-0.560916 -0.211667,-0.41275 -0.0635,-2.899834 v -2.973916 l 0.116417,-0.645583 0.359833,-0.232834 h 0.22225 l 0.34925,0.433917 0.05292,2.264833 -0.127,0.910167 0.179917,1.132416 -0.148167,0.22225 0.15875,0.560917 0.03175,0.98425 0.275167,0.28575 0.783167,-0.08467 0.137583,-0.232833 0.127,-0.98425 -0.09525,-4.2545 0.05292,-0.836083 0.05292,-0.22225 0.359834,-0.15875 0.275166,-0.01058 0.370417,0.28575 0.01058,3.820583 -0.201083,0.645583 z"
         style="font-style:normal;font-variant:normal;font-weight:normal;font-stretch:normal;font-family:'XBAND Rough';-inkscape-font-specification:'XBAND Rough';fill:#ffffff;stroke-width:0.26458332"
         id="path4592" />
      <path
         d="m 66.037621,28.477529 -0.0635,0.518583 -0.486834,0.201083 -2.497666,-0.08467 -0.1905,-0.127 -0.15875,-0.137584 -0.09525,-4.2545 0.116416,-3.407833 0.296334,-0.22225 0.645583,0.05292 0.201083,0.22225 -0.03175,0.98425 -0.1905,4.455583 0.148167,0.370417 -0.127,0.79375 0.08467,0.1905 1.767416,0.03175 0.423334,0.137583 z"
         style="font-style:normal;font-variant:normal;font-weight:normal;font-stretch:normal;font-family:'XBAND Rough';-inkscape-font-specification:'XBAND Rough';fill:#ffffff;stroke-width:0.26458332"
         id="path4594" />
      <path
         d="m 70.786892,23.058862 -0.0635,0.423334 -0.137584,0.645583 0.04233,1.767416 -0.03175,1.926167 -0.486834,0.497417 -0.85725,0.169333 -1.693333,-0.03175 -0.127,-0.148167 -0.04233,-1.629833 0.116416,-0.338667 0.433917,-0.381 -0.148167,-0.148166 -0.22225,0.01058 -0.15875,-0.34925 -0.0635,-3.122083 0.116417,-1.481667 0.211667,-0.22225 0.201083,-0.07408 1.005417,0.04233 0.836083,-0.01058 0.455083,0.211667 0.275167,0.338666 0.15875,0.560917 0.02117,1.2065 z m -0.878417,-0.762 -0.01058,-0.34925 -0.34925,-0.359833 -0.497417,-0.04233 -0.5715,-0.127 -0.211667,0.148166 v 0.201084 l -0.0635,0.22225 0.148167,0.211666 0.0635,3.100917 -0.127,0.5715 0.02117,1.2065 0.15875,0.4445 0.910166,0.02117 0.296334,-0.201083 0.09525,-0.931333 -0.07408,-3.7465 z"
         style="font-style:normal;font-variant:normal;font-weight:normal;font-stretch:normal;font-family:'XBAND Rough';-inkscape-font-specification:'XBAND Rough';fill:#ffffff;stroke-width:0.26458332"
         id="path4596" />
      <path
         d="m 76.205558,23.037696 -0.127,2.973916 0.04233,2.074333 -0.211667,0.423334 -0.211666,0.148166 -0.34925,0.01058 -0.34925,-0.28575 -0.3175,-1.058334 -0.148167,-0.211666 -0.08467,-0.423334 -0.127,-0.211666 -0.169333,-0.687917 -0.306917,-0.783167 -0.127,-0.137583 -0.148166,0.148167 -0.116417,1.629833 0.04233,1.61925 -0.211666,0.370417 -0.201084,0.08467 h -0.22225 l -0.423333,-0.47625 0.116417,-1.513416 0.03175,-3.767667 0.105833,-1.894416 0.148167,-0.07408 0.423333,0.0635 0.508,0.751417 0.08467,0.4445 0.22225,0.338667 0.529166,1.344083 0.15875,0.635 0.148167,0.1905 h 0.05292 l 0.15875,-2.836333 -0.02117,-0.709084 0.22225,-0.275166 0.486833,-0.02117 0.15875,0.423333 0.09525,0.85725 z"
         style="font-style:normal;font-variant:normal;font-weight:normal;font-stretch:normal;font-family:'XBAND Rough';-inkscape-font-specification:'XBAND Rough';fill:#ffffff;stroke-width:0.26458332"
         id="path4598" />
      <path
         d="m 79.01014,21.365529 -0.105833,0.804333 -0.211667,0.941917 -0.22225,0.232833 -0.41275,0.01058 -0.306916,-0.296334 0.0635,-0.41275 0.169333,-0.878416 0.0635,-0.486834 0.1905,-0.232833 h 0.370417 z"
         style="font-style:normal;font-variant:normal;font-weight:normal;font-stretch:normal;font-family:'XBAND Rough';-inkscape-font-specification:'XBAND Rough';fill:#ffffff;stroke-width:0.26458332"
         id="path4600" />
      <path
         d="m 83.673918,21.619529 -0.433917,0.381 -0.645583,0.02117 -0.116417,0.22225 0.137583,5.090583 -0.04233,1.280583 -0.137583,0.201083 -0.148167,0.15875 -0.423333,-0.0635 -0.232834,-0.486833 -0.116416,-4.677833 0.03175,-1.481667 -0.275167,-0.211666 -0.5715,-0.0635 -0.381,-0.328084 0.0635,-0.4445 0.41275,-0.28575 2.561167,0.127 0.232833,0.148167 0.07408,0.22225 z"
         style="font-style:normal;font-variant:normal;font-weight:normal;font-stretch:normal;font-family:'XBAND Rough';-inkscape-font-specification:'XBAND Rough';fill:#ffffff;stroke-width:0.26458332"
         id="path4602" />
    </g>
    <g
       aria-label="STEAL"
       style="font-style:normal;font-weight:normal;font-size:10.58333302px;line-height:1.25;font-family:sans-serif;letter-spacing:0px;word-spacing:0px;fill:#ffffff;fill-opacity:1;stroke:none;stroke-width:0.26458332"
       id="text4532">
      <path
         d="m 19.723912,39.786077 -0.402167,0.645583 -0.560917,0.211667 -0.518583,0.08467 -0.264583,0.01058 -0.497417,-0.1905 -0.5715,-0.423333 -0.306917,-0.41275 -0.02117,-0.910167 0.28575,-0.232833 0.423333,0.0635 0.232833,0.338666 0.05292,0.4445 0.529167,0.328084 0.486833,-0.08467 0.338667,-0.497417 0.05292,-0.635 -0.01058,-0.497416 -0.232833,-0.560917 -0.127,-0.148167 -1.090084,-0.1905 -0.497416,-0.338666 -0.34925,-0.41275 -0.169334,-0.560917 -0.03175,-1.566333 0.34925,-0.6985 0.560917,-0.529167 0.560917,-0.211667 0.762,0.05292 0.4445,0.1905 0.359833,0.486833 0.08467,0.359834 -0.148167,0.15875 0.01058,0.41275 -0.148166,0.148166 -0.116417,0.01058 -0.529167,-0.635 -0.127,-0.137584 -0.719666,0.15875 -0.275167,0.846667 0.09525,0.783167 0.01058,0.22225 0.497417,0.402166 0.719667,0.137584 0.582083,0.624416 0.105833,1.545167 0.148167,0.22225 z"
         style="font-style:normal;font-variant:normal;font-weight:normal;font-stretch:normal;font-family:'XBAND Rough';-inkscape-font-specification:'XBAND Rough';fill:#ffffff;stroke-width:0.26458332"
         id="path4605" />
      <path
         d="m 24.634578,33.63716 -0.433917,0.381 -0.645583,0.02117 -0.116417,0.22225 0.137584,5.090583 -0.04233,1.280584 -0.137583,0.201083 -0.148167,0.15875 -0.423333,-0.0635 -0.232833,-0.486833 -0.116417,-4.677834 0.03175,-1.481666 -0.275166,-0.211667 -0.5715,-0.0635 -0.381,-0.328083 0.0635,-0.4445 0.41275,-0.28575 2.561166,0.127 0.232833,0.148166 0.07408,0.22225 z"
         style="font-style:normal;font-variant:normal;font-weight:normal;font-stretch:normal;font-family:'XBAND Rough';-inkscape-font-specification:'XBAND Rough';fill:#ffffff;stroke-width:0.26458332"
         id="path4607" />
      <path
         d="m 29.733926,40.156494 -0.04233,0.275166 -0.28575,0.306917 -2.688166,0.0635 -0.296334,-0.359833 -0.09525,-3.471334 0.09525,-2.19075 -0.03175,-1.132416 0.137584,-0.423334 0.116416,-0.22225 0.359834,-0.232833 0.98425,0.127 0.867833,-0.03175 0.201083,0.34925 0.22225,-0.01058 0.01058,0.22225 -0.22225,0.15875 -1.545167,0.179916 -0.148167,0.127 -0.03175,1.354667 0.01058,0.423333 0.15875,0.433917 0.148166,0.127 1.280584,0.03175 0.28575,0.370417 -0.137584,0.486833 -0.264583,0.15875 -1.354667,0.08467 -0.137583,0.4445 0.169333,0.910166 -0.0635,0.423334 0.02117,0.582083 0.148167,0.127 1.132416,-0.105833 0.486834,-0.01058 0.306916,0.137584 z"
         style="font-style:normal;font-variant:normal;font-weight:normal;font-stretch:normal;font-family:'XBAND Rough';-inkscape-font-specification:'XBAND Rough';fill:#ffffff;stroke-width:0.26458332"
         id="path4609" />
      <path
         d="m 35.692343,40.08241 -0.211667,0.423334 -0.1905,0.232833 -0.5715,0.01058 -0.391583,-0.846666 -0.09525,-0.762 -0.275167,-0.28575 -0.486833,0.01058 -0.15875,-0.148167 -0.85725,0.169334 -0.328084,0.381 -0.127,0.846666 -0.137583,0.296334 -0.41275,0.34925 -0.34925,-0.0635 -0.306917,-0.338667 0.0635,-0.635 0.137584,-0.22225 0.127,-0.719667 0.254,-0.772583 0.0635,-0.497417 0.275166,-0.719666 0.03175,-0.560917 0.391584,-2.084917 0.243416,-1.058333 0.359834,-0.359833 0.836083,0.03175 0.306917,0.508 0.01058,0.1905 0.127,0.148166 0.01058,0.560917 0.232834,0.296333 0.15875,0.687917 0.179916,0.931333 0.127,0.1905 0.09525,0.931334 0.15875,0.264583 0.08467,0.635 0.15875,0.22225 0.01058,0.34925 0.201084,0.211667 0.01058,0.635 z m -1.915584,-2.50825 v -0.1905 l -0.08467,-0.07408 -0.08467,-0.4445 -0.201083,-0.338667 -0.01058,-0.338666 -0.232833,-0.635 -0.148167,0.148166 -0.127,0.836084 -0.254,0.497416 v 0.22225 l 0.08467,0.275167 0.275167,0.137583 0.5715,0.0635 z"
         style="font-style:normal;font-variant:normal;font-weight:normal;font-stretch:normal;font-family:'XBAND Rough';-inkscape-font-specification:'XBAND Rough';fill:#ffffff;stroke-width:0.26458332"
         id="path4611" />
      <path
         d="m 40.401925,40.49516 -0.0635,0.518584 -0.486833,0.201083 -2.497667,-0.08467 -0.1905,-0.127 -0.15875,-0.137583 -0.09525,-4.2545 0.116417,-3.407833 0.296333,-0.22225 0.645584,0.05292 0.201083,0.22225 -0.03175,0.98425 -0.1905,4.455584 0.148167,0.370416 -0.127,0.79375 0.08467,0.1905 1.767417,0.03175 0.423333,0.137584 z"
         style="font-style:normal;font-variant:normal;font-weight:normal;font-stretch:normal;font-family:'XBAND Rough';-inkscape-font-specification:'XBAND Rough';fill:#ffffff;stroke-width:0.26458332"
         id="path4613" />
    </g>
    <g
       aria-label="A"
       style="font-style:normal;font-weight:normal;font-size:9.87777805px;line-height:1.25;font-family:sans-serif;letter-spacing:0px;word-spacing:0px;fill:#ffffff;fill-opacity:1;stroke:none;stroke-width:0.26458332"
       id="text4536">
      <path
         d="m 47.528506,38.613287 -0.197555,0.395111 -0.1778,0.217311 -0.5334,0.0099 -0.365478,-0.790223 -0.0889,-0.7112 -0.256822,-0.2667 -0.454378,0.0099 -0.148167,-0.138289 -0.8001,0.158045 -0.306211,0.3556 -0.118533,0.790222 -0.128411,0.276578 -0.385234,0.325966 -0.325967,-0.05927 -0.286455,-0.316089 0.05927,-0.592667 0.128411,-0.207433 0.118533,-0.671689 0.237067,-0.721078 0.05927,-0.464256 0.256823,-0.671688 0.02963,-0.523523 0.365478,-1.945922 0.227189,-0.987778 0.335844,-0.335844 0.780345,0.02963 0.286455,0.474133 0.0099,0.1778 0.118533,0.138289 0.0099,0.523523 0.217311,0.276577 0.148167,0.642056 0.167922,0.869244 0.118533,0.1778 0.0889,0.869245 0.148167,0.246944 0.07902,0.592667 0.148167,0.207433 0.0099,0.325967 0.187677,0.197556 0.0099,0.592666 z m -1.787878,-2.341034 v -0.1778 l -0.07902,-0.06914 -0.07902,-0.414867 -0.187678,-0.316089 -0.0099,-0.316089 -0.217311,-0.592666 -0.138289,0.138288 -0.118533,0.780345 -0.237067,0.464255 v 0.207434 l 0.07902,0.256822 0.256822,0.128411 0.5334,0.05927 z"
         style="font-style:normal;font-variant:normal;font-weight:normal;font-stretch:normal;font-size:9.87777805px;font-family:'XBAND Rough';-inkscape-font-specification:'XBAND Rough';fill:#ffffff;stroke-width:0.26458332"
         id="path4616" />
    </g>
    <g
       aria-label="WEBSITE"
       style="font-style:normal;font-weight:normal;font-size:14.11111069px;line-height:1.25;font-family:sans-serif;letter-spacing:0px;word-spacing:0px;fill:#ffffff;fill-opacity:1;stroke:none;stroke-width:0.26458332"
       id="text4540">
      <path
         d="m 55.958652,36.503636 -0.08467,0.860777 -0.141112,0.762 0.01411,0.846667 -0.183445,0.268111 0.01411,0.959556 -0.183444,0.550333 -0.07056,1.354667 -0.183444,0.366888 -0.02822,1.707445 -0.254,1.806222 -0.183445,0.268111 -0.663222,0.211667 -0.395111,-0.08467 -0.465667,-0.550333 -0.127,-1.143 -0.197555,-0.268111 -0.324556,1.524 -0.09878,0.296333 -0.197555,0.169333 -1.016,-0.07055 -0.409222,-0.747889 -0.01411,-0.917222 -0.465666,-4.459111 -0.225778,-0.945445 -0.112889,-1.114777 -0.211666,-0.381 -0.01411,-0.762 -0.112888,-0.550334 -0.01411,-0.296333 0.493889,-0.479778 h 0.550334 l 0.366888,0.352778 0.225778,0.945444 0.127,1.693334 0.225778,0.959555 0.01411,0.451556 0.09878,0.09878 0.155222,-0.197555 0.08467,-0.832556 0.578555,-0.592666 0.649111,-0.01411 0.479778,0.578555 0.112889,1.016 0.09878,0.08467 h 0.197555 l 0.155223,-0.564445 0.239888,-2.568222 0.183445,-0.846666 -0.01411,-0.09878 0.451555,-0.282222 0.493889,0.05644 z"
         style="font-style:normal;font-variant:normal;font-weight:normal;font-stretch:normal;font-size:14.11111069px;font-family:'XBAND Rough';-inkscape-font-specification:'XBAND Rough';fill:#ffffff;stroke-width:0.26458332"
         id="path4619" />
      <path
         d="m 62.322763,44.998524 -0.05644,0.366889 -0.381,0.409222 -3.584222,0.08467 -0.395112,-0.479778 -0.127,-4.628444 0.127,-2.921 -0.04233,-1.509889 0.183445,-0.564444 0.155222,-0.296334 0.479778,-0.310444 1.312333,0.169333 1.157111,-0.04233 0.268111,0.465667 0.296333,-0.01411 0.01411,0.296333 -0.296333,0.211666 -2.060222,0.239889 -0.197556,0.169334 -0.04233,1.806222 0.01411,0.564444 0.211667,0.578556 0.197555,0.169333 1.707445,0.04233 0.381,0.493889 -0.183445,0.649111 -0.352777,0.211667 -1.806223,0.112889 -0.183444,0.592667 0.225778,1.213555 -0.08467,0.564445 0.02822,0.776111 0.197556,0.169333 1.509889,-0.141111 0.649111,-0.01411 0.409222,0.183444 z"
         style="font-style:normal;font-variant:normal;font-weight:normal;font-stretch:normal;font-size:14.11111069px;font-family:'XBAND Rough';-inkscape-font-specification:'XBAND Rough';fill:#ffffff;stroke-width:0.26458332"
         id="path4621" />
      <path
         d="m 69.13843,36.263747 -0.09878,3.584222 -0.183445,0.592666 0.225778,0.945445 -0.112889,3.287889 -0.254,0.508 -0.733777,0.564444 -2.667,0.07056 -0.296334,-0.183445 -0.366889,-0.550333 -0.07055,-2.455333 -0.01411,-4.332111 0.09878,-2.568222 0.183444,-0.296334 0.296333,-0.268111 0.451556,-0.112889 2.469444,0.197556 0.663222,0.381 z m -1.382889,0.790222 -0.211667,-0.352778 -1.241778,0.04233 -0.155222,0.550334 0.05644,2.370666 1.411111,-0.04233 0.09878,-0.296333 z m -0.08467,4.445 -0.860778,-0.239889 -0.550333,0.112889 -0.183444,0.564444 -0.07056,1.411111 0.225778,1.044222 1.312333,-0.141111 0.08467,-0.395111 z"
         style="font-style:normal;font-variant:normal;font-weight:normal;font-stretch:normal;font-size:14.11111069px;font-family:'XBAND Rough';-inkscape-font-specification:'XBAND Rough';fill:#ffffff;stroke-width:0.26458332"
         id="path4623" />
      <path
         d="m 76.123429,44.504635 -0.536222,0.860778 -0.747889,0.282222 -0.691444,0.112889 -0.352778,0.01411 -0.663222,-0.254 -0.762,-0.564444 -0.409222,-0.550333 -0.02822,-1.213556 0.380999,-0.310444 0.564445,0.08467 0.310444,0.451556 0.07056,0.592666 0.705555,0.437445 0.649112,-0.112889 0.451555,-0.663222 0.07056,-0.846667 -0.01411,-0.663222 -0.310445,-0.747889 -0.169333,-0.197555 -1.453445,-0.254 -0.663222,-0.451556 -0.465666,-0.550333 -0.225778,-0.747889 -0.04233,-2.088445 0.465667,-0.931333 0.747889,-0.705555 0.747889,-0.282223 1.016,0.07056 0.592666,0.254 0.479778,0.649111 0.112889,0.479778 -0.197555,0.211666 0.01411,0.550334 -0.197556,0.197555 -0.155222,0.01411 -0.705556,-0.846666 -0.169333,-0.183445 -0.959556,0.211667 -0.366888,1.128889 0.127,1.044222 0.01411,0.296333 0.663222,0.536223 0.959555,0.183444 0.776112,0.832556 0.141111,2.060222 0.197555,0.296333 z"
         style="font-style:normal;font-variant:normal;font-weight:normal;font-stretch:normal;font-size:14.11111069px;font-family:'XBAND Rough';-inkscape-font-specification:'XBAND Rough';fill:#ffffff;stroke-width:0.26458332"
         id="path4625" />
      <path
         d="m 80.483763,45.294858 -0.197556,0.465666 -0.818444,0.01411 -0.395111,-0.352777 -0.127,-5.672667 0.225777,-3.132667 -0.01411,-0.846666 0.451556,-0.465667 0.296333,0.05644 h 0.155222 l 0.197556,0.183444 0.04233,1.806222 -0.183444,0.465667 -0.352778,0.395111 0.465667,0.451556 -0.239889,0.564444 0.366889,0.395111 -0.08467,0.945444 0.05644,2.271889 0.127,1.298222 z"
         style="font-style:normal;font-variant:normal;font-weight:normal;font-stretch:normal;font-size:14.11111069px;font-family:'XBAND Rough';-inkscape-font-specification:'XBAND Rough';fill:#ffffff;stroke-width:0.26458332"
         id="path4627" />
      <path
         d="m 87.16339,36.30608 -0.578556,0.508 -0.860778,0.02822 -0.155222,0.296334 0.183445,6.787444 -0.05644,1.707444 -0.183444,0.268111 -0.197556,0.211667 -0.564444,-0.08467 -0.310445,-0.649111 -0.155222,-6.237111 0.04233,-1.975555 -0.366888,-0.282222 -0.762,-0.08467 -0.508,-0.437445 0.08467,-0.592666 0.550334,-0.381 3.414888,0.169333 0.310445,0.197556 0.09878,0.296333 z"
         style="font-style:normal;font-variant:normal;font-weight:normal;font-stretch:normal;font-size:14.11111069px;font-family:'XBAND Rough';-inkscape-font-specification:'XBAND Rough';fill:#ffffff;stroke-width:0.26458332"
         id="path4629" />
      <path
         d="m 93.96252,44.998524 -0.05644,0.366889 -0.381,0.409222 -3.584222,0.08467 -0.395111,-0.479778 -0.127,-4.628444 0.127,-2.921 -0.04233,-1.509889 0.183445,-0.564444 0.155222,-0.296334 0.479778,-0.310444 1.312333,0.169333 1.157111,-0.04233 0.268111,0.465667 0.296334,-0.01411 0.01411,0.296333 -0.296334,0.211666 -2.060222,0.239889 -0.197555,0.169334 -0.04233,1.806222 0.01411,0.564444 0.211667,0.578556 0.197556,0.169333 1.707444,0.04233 0.381,0.493889 -0.183444,0.649111 -0.352778,0.211667 -1.806222,0.112889 -0.183445,0.592667 0.225778,1.213555 -0.08467,0.564445 0.02822,0.776111 0.197556,0.169333 1.509889,-0.141111 0.649111,-0.01411 0.409222,0.183444 z"
         style="font-style:normal;font-variant:normal;font-weight:normal;font-stretch:normal;font-size:14.11111069px;font-family:'XBAND Rough';-inkscape-font-specification:'XBAND Rough';fill:#ffffff;stroke-width:0.26458332"
         id="path4631" />
    </g>
  </g>
</svg>
